Coordinates
version=1
nRows=10
nColumns=46
inDegrees=yes

Units are S.I. units (second, meters, Newtons, ...)
Angles are in degrees.

endheader
time	pelvis_tilt	pelvis_list	pelvis_rotation	pelvis_tx	pelvis_ty	pelvis_tz	bb_angle	bb_tx	bb_ty	bb_tz	hip_flexion_r	hip_adduction_r	hip_rotation_r	knee_angle_r	knee_angle_r_beta	ankle_angle_r	subtalar_angle_r	mtp_angle_r	crank_angle_r	hip_flexion_l	hip_adduction_l	hip_rotation_l	knee_angle_l	knee_angle_l_beta	ankle_angle_l	subtalar_angle_l	mtp_angle_l	crank_angle_l	lumbar_extension	lumbar_bending	lumbar_rotation	arm_flex_r	arm_add_r	arm_rot_r	elbow_flex_r	pro_sup_r	wrist_flex_r	wrist_dev_r	arm_flex_l	arm_add_l	arm_rot_l	elbow_flex_l	pro_sup_l	wrist_flex_l	wrist_dev_l
      7.50000000	    -21.01470107	     -7.51492802	      7.47232318	      0.38544416	      1.20634157	     -0.28588250	      0.00000000	      0.50000000	      0.00000000	      0.25000000	     48.53178573	     -1.09765309	     -0.44349704	     89.30629009	      1.55868880	    -12.27414855	     -7.26603984	      0.00000000	      0.00000000	     34.06901134	     -4.38351280	      5.23307694	     32.12827759	      0.56074423	     -0.63443916	     -6.29244431	      0.00000000	      0.00000000	    -62.99444230	      9.65054082	     -6.66522996	     54.58270175	    -10.92461754	     27.90065139	     73.16639701	     51.39732358	      0.00000000	      0.00000000	     42.35868352	    -24.09579582	     18.17258323	     91.12601306	     56.52986992	      0.00000000	      0.00000000
      7.50500000	    -20.97637818	     -8.08691976	      6.30981772	      0.38623929	      1.20451770	     -0.28631749	      0.00000000	      0.50000000	      0.00000000	      0.25000000	     49.72781319	     -0.27227110	     -0.24939732	     91.18103200	      1.59140922	    -10.32295222	     -6.97451696	      0.00000000	      0.00000000	     32.35141373	     -5.72418459	      4.12923489	     29.97030258	      0.52308046	     -1.20254634	     -5.25911176	      0.00000000	      0.00000000	    -62.92587189	      9.69087576	     -5.93658934	     55.04261565	    -11.02897264	     28.91482748	     73.08069079	     51.49485167	      0.00000000	      0.00000000	     41.42501207	    -24.34267926	     17.54389098	     91.38643684	     56.49394883	      0.00000000	      0.00000000
      7.51000000	    -20.92890954	     -8.64004515	      5.23245406	      0.38710785	      1.20266340	     -0.28683173	      0.00000000	      0.50000000	      0.00000000	      0.25000000	     50.92001602	      0.44431695	     -0.14844386	     92.93949125	      1.62210013	     -8.69995149	     -6.72663419	      0.00000000	      0.00000000	     30.62840980	     -7.00760540	      2.83442449	     27.91809414	      0.48726266	     -1.66543057	     -3.87052350	      0.00000000	      0.00000000	    -62.87867817	      9.82532381	     -5.42132239	     55.73708976	    -11.12937056	     30.52405972	     72.73192217	     51.61427317	      0.00000000	      0.00000000	     40.25226311	    -24.63212634	     16.52485525	     91.87146198	     56.44205464	      0.00000000	      0.00000000
      7.51500000	    -20.92928298	     -9.13816108	      4.11019977	      0.38783931	      1.20085528	     -0.28737027	      0.00000000	      0.50000000	      0.00000000	      0.25000000	     52.19935384	      1.08785249	     -0.08405297	     94.55590710	      1.65031191	     -7.52033935	     -6.56648908	      0.00000000	      0.00000000	     28.94847844	     -8.22988059	      1.35424308	     25.97695120	      0.45338333	     -2.15948062	     -2.28211629	      0.00000000	      0.00000000	    -62.82028243	     10.19090767	     -6.20154184	     57.44968906	     -9.67451822	     33.43705145	     70.70708992	     51.60040632	      0.00000000	      0.00000000	     37.45303728	    -26.07424755	     13.64716689	     93.82692484	     56.34926948	      0.00000000	      0.00000000
      7.52000000	    -20.86533607	     -9.54545331	      2.93153322	      0.38886482	      1.19935398	     -0.28792086	      0.00000000	      0.50000000	      0.00000000	      0.25000000	     53.28227353	      1.68477130	     -0.28672365	     96.09914602	      1.67724651	     -6.26159705	     -7.26019599	      0.00000000	      0.00000000	     27.10156482	     -9.36068895	     -0.42030558	     24.02530940	      0.41932075	     -2.71750916	     -0.64970972	      0.00000000	      0.00000000	    -62.82987575	     10.11749749	     -5.43252376	     57.77089116	     -9.78465456	     34.11207377	     70.70278095	     51.67586183	      0.00000000	      0.00000000	     36.69204002	    -26.06602964	     13.23763336	     93.76108989	     56.28277383	      0.00000000	      0.00000000
      7.52500000	    -20.79826844	    -10.02033789	      2.02214403	      0.38986260	      1.19794766	     -0.28885202	      0.00000000	      0.50000000	      0.00000000	      0.25000000	     54.25926160	      2.05069675	     -0.91676925	     97.52524876	      1.70213669	     -5.02376591	     -8.48806984	      0.00000000	      0.00000000	     25.33729805	    -10.37291310	     -1.96587013	     22.18439206	      0.38719068	     -3.38613258	      1.12400882	      0.00000000	      0.00000000	    -62.79430512	     10.40036715	     -4.70576456	     58.03699705	     -9.85880154	     35.00587772	     70.57211009	     51.75469654	      0.00000000	      0.00000000	     35.85768942	    -26.11298993	     12.81154039	     93.71115817	     56.22121815	      0.00000000	      0.00000000
      7.53000000	    -20.66652090	    -10.52743657	      1.02904932	      0.39088631	      1.19671842	     -0.28948062	      0.00000000	      0.50000000	      0.00000000	      0.25000000	     55.15444975	      2.58534261	     -1.50251840	     98.81459659	      1.72464006	     -3.86606284	     -9.42665930	      0.00000000	      0.00000000	     23.54945691	    -11.51070726	     -3.92253902	     20.60071755	      0.35955035	     -3.57281276	      3.72922440	      0.00000000	      0.00000000	    -62.96016623	     10.62699564	     -4.33767835	     59.00476014	     -9.77411833	     36.94682754	     70.05996784	     51.88140971	      0.00000000	      0.00000000	     34.57928033	    -26.34502430	     11.56770466	     94.16579067	     56.12901398	      0.00000000	      0.00000000
      7.53500000	    -20.63919088	    -10.73221037	     -0.12699942	      0.39219735	      1.19557604	     -0.28993901	      0.00000000	      0.50000000	      0.00000000	      0.25000000	     56.20338141	      3.01012317	     -1.57801391	    100.01292429	      1.74555482	     -2.87911170	     -9.82521989	      0.00000000	      0.00000000	     21.69230879	    -12.31231612	     -6.35913139	     18.81571461	      0.32839617	     -4.25878065	      6.99051838	      0.00000000	      0.00000000	    -63.08979669	     10.71223785	     -4.15597686	     59.56178005	     -9.28245057	     38.04120977	     69.86732167	     51.96526422	      0.00000000	      0.00000000	     33.32664394	    -26.75397792	     10.45179002	     94.47273995	     56.03961758	      0.00000000	      0.00000000
      7.54000000	    -20.74304831	    -10.94244730	     -1.13990466	      0.39297006	      1.19432081	     -0.29070848	      0.00000000	      0.50000000	      0.00000000	      0.25000000	     57.49895485	      3.33619151	     -1.36560731	    101.04439026	      1.76355730	     -1.81428885	     -9.04322941	      0.00000000	      0.00000000	     20.11398667	    -12.92512699	     -8.24201256	     17.16364762	      0.29956216	     -4.88473016	      9.59675543	      0.00000000	      0.00000000	    -63.00885136	     10.79328171	     -3.94909131	     60.11660882	     -8.99298710	     39.07866562	     69.62516520	     52.02682722	      0.00000000	      0.00000000	     32.23776438	    -26.89600751	      9.54384938	     94.70262245	     55.95152020	      0.00000000	      0.00000000
      7.54500000	    -20.96117429	    -11.25757219	     -2.27335697	      0.39364322	      1.19345976	     -0.29076891	      0.00000000	      0.50000000	      0.00000000	      0.25000000	     58.61055204	      4.02368622	     -0.72087923	    101.36276132	      1.76911392	     -0.69542176	     -7.13485079	      0.00000000	      0.00000000	     18.73001617	    -13.68235985	    -10.11778085	     15.84917368	      0.27662026	     -5.60698479	     11.50137230	      0.00000000	      0.00000000	    -62.93078177	     10.82000926	     -3.57954989	     60.65754528	     -8.62214618	     40.06031389	     69.37695170	     52.08921995	      0.00000000	      0.00000000	     31.22982456	    -27.04790069	      8.63478524	     94.89808229	     55.87325467	      0.00000000	      0.00000000
